<?xml version="1.0" encoding="utf-8"?>
<svg viewBox="0 0 96 96" xmlns="http://www.w3.org/2000/svg">
  <path d="M 33.236 66.463 L 25.853 66.463 C 23.01 66.463 21.233 69.54 22.654 72.001 C 23.314 73.143 24.53 73.846 25.853 73.846 L 33.236 73.846 C 36.079 73.846 37.854 70.77 36.431 68.309 C 35.775 67.166 34.555 66.463 33.236 66.463 Z M 70.154 36.928 C 72.194 36.928 73.846 35.276 73.846 33.236 L 73.846 25.852 C 73.846 23.011 70.768 21.233 68.307 22.656 C 67.166 23.314 66.461 24.533 66.461 25.852 L 66.461 33.236 C 66.461 35.276 68.113 36.928 70.154 36.928 Z M 46.658 41.44 L 41.437 36.217 C 39.427 34.209 35.996 35.128 35.261 37.874 C 34.919 39.147 35.282 40.507 36.217 41.44 L 41.437 46.662 C 42.159 47.383 43.102 47.742 44.047 47.742 C 44.994 47.742 45.934 47.383 46.658 46.663 C 48.101 45.222 48.101 42.882 46.658 41.44 Z M 114.455 66.463 L 107.072 66.463 C 104.231 66.463 102.454 69.54 103.875 72.001 C 104.534 73.143 105.753 73.846 107.072 73.846 L 114.455 73.846 C 117.298 73.846 119.075 70.77 117.654 68.309 C 116.995 67.166 115.775 66.463 114.455 66.463 Z M 70.154 44.312 C 55.903 44.312 44.31 55.904 44.31 70.155 C 44.31 72.195 45.965 73.846 48.003 73.846 L 92.306 73.846 C 94.345 73.846 95.997 72.195 95.997 70.155 C 95.997 55.904 84.404 44.312 70.154 44.312 Z M 72.666 66.063 C 74.381 57.649 62.841 52.896 71.753 52.896 C 80.668 52.896 57.725 49.248 59.44 57.664 L 72.666 66.063 Z M 104.09 36.217 C 102.649 34.775 100.312 34.775 98.871 36.217 L 93.651 41.44 C 91.676 43.483 92.655 46.898 95.413 47.587 C 96.648 47.895 97.956 47.543 98.871 46.66 L 104.09 41.438 C 105.533 39.997 105.533 37.659 104.09 36.217 Z" class="fill-000000" style="fill: rgb(255, 255, 255);" transform="matrix(0, 1, -1, 0, 118.154495, -22.153503)"/>
</svg>