<?xml version="1.0" encoding="utf-8"?>
<!-- Generator: Adobe Illustrator 14.0.0, SVG Export Plug-In . SVG Version: 6.00 Build 43363)  -->
<!DOCTYPE svg PUBLIC "-//W3C//DTD SVG 1.1//EN" "http://www.w3.org/Graphics/SVG/1.1/DTD/svg11.dtd">
<svg version="1.1" id="Layer_1" xmlns="http://www.w3.org/2000/svg" xmlns:xlink="http://www.w3.org/1999/xlink" x="0px" y="0px"
	 width="512px" height="512px" viewBox="0 0 512 512" enable-background="new 0 0 512 512" xml:space="preserve">
<g>
	<g id="XMLID_1_">
		<g>
			<path fill="#2CB742" d="M417.1,92.84C460.12,135.97,486,193.16,486,254.05C486,379.73,381.47,482,255.9,482h-0.11
				c-38.19,0-75.67-9.56-108.94-27.73L26,486l32.35-118.08c-19.93-34.6-30.4-73.83-30.4-113.97C27.95,128.27,130.22,26,255.9,26
				C316.79,26,374.08,49.72,417.1,92.84z M447.5,254.05c0.1-50.62-21.88-98.16-57.61-134C354.16,84.22,306.62,64.51,256,64.51
				c-104.53,0-189.54,85.01-189.54,189.44c0,35.83,9.96,70.64,28.95,100.83l4.52,7.18l-19.1,69.93l71.67-18.79l6.88,4.11
				c29.06,17.25,62.43,26.38,96.52,26.38C360.32,443.59,447.5,358.58,447.5,254.05z"/>
			<path fill="#2CB742" d="M370.59,308.47c1.44,2.36,1.44,13.761-3.29,27.11c-4.72,13.34-27.41,25.46-38.399,27.1
				c-18.07,2.67-32.24,1.34-68.381-14.27c-57.189-24.74-94.47-82.24-97.339-86.04c-2.77-3.8-23.21-30.91-23.21-58.94
				c0-28.03,14.69-41.79,19.92-47.54c5.24-5.65,11.4-7.09,15.2-7.09c3.8,0,7.6,0,10.88,0.21c3.5,0.2,8.22-1.34,12.84,9.75
				c4.72,11.4,16.12,39.43,17.56,42.31c1.44,2.87,2.36,6.16,0.51,9.96c-10.88,21.76-22.59,21.05-16.74,31.11
				c22.08,37.89,44.05,51.03,77.53,67.77c5.64,2.87,9.03,2.359,12.32-1.44c3.39-3.899,14.27-16.63,18.069-22.38
				c3.801-5.75,7.601-4.83,12.83-2.88c5.24,1.85,33.271,15.61,38.92,18.48C365.45,304.46,369.25,305.9,370.59,308.47z"/>
		</g>
		<g>
		</g>
	</g>
</g>
<g id="Layer_1_1_">
</g>
</svg>
